HIERARCHY
ROOT Hips
{
	OFFSET 0.00 0.00 0.00
	CHANNELS 6 Xposition Yposition Zposition Yrotation Xrotation Zrotation
	JOINT Chest
	{
		OFFSET	0.0000	9.2263	1.5771
		CHANNELS 3 Yrotation Xrotation Zrotation
		JOINT Chest2
		{
			OFFSET	0.0000	16.2540	-0.1656
			CHANNELS 3 Yrotation Xrotation Zrotation
			JOINT Chest3
			{
				OFFSET	0.0000	13.6396	-1.2923
				CHANNELS 3 Yrotation Xrotation Zrotation
				JOINT Neck
				{
					OFFSET	0.0000	13.8774	-4.3542
					CHANNELS 3 Yrotation Xrotation Zrotation
					JOINT Head
					{
						OFFSET	0.0000	4.0266	0.8585
						CHANNELS 3 Yrotation Xrotation Zrotation
						End Site
						{
							OFFSET 0.0000 17.8866 0.1231
						}
					}
				}
				JOINT LeftCollar
				{
					OFFSET	6.1442	10.1870	-3.7932
					CHANNELS 3 Yrotation Xrotation Zrotation
					JOINT LeftShoulder
					{
						OFFSET	12.3191	-1.1130	-1.7935
						CHANNELS 3 Yrotation Xrotation Zrotation
						JOINT LeftElbow
						{
							OFFSET	27.6870	0.0000	0.0000
							CHANNELS 3 Yrotation Xrotation Zrotation
							JOINT LeftHand
							{
								OFFSET	27.8738	0.0000	0.0000
								CHANNELS 3 Yrotation Xrotation Zrotation
								JOINT LeftFinger0
								{
									OFFSET	3.1460	-1.0029	4.0023
									CHANNELS 3 Yrotation Xrotation Zrotation
									JOINT LeftFinger01
									{
										OFFSET	4.3298	-1.0029	2.0796
										CHANNELS 3 Yrotation Xrotation Zrotation
										End Site
										{
											OFFSET 3.7362 -2.0137 1.7261
										}
									}
								}
								JOINT LeftFinger1
								{
									OFFSET	11.5739	0.0000	0.0000
									CHANNELS 3 Yrotation Xrotation Zrotation
									JOINT LeftFinger11
									{
										OFFSET	4.0578	0.0000	0.0000
										CHANNELS 3 Yrotation Xrotation Zrotation
										End Site
										{
											OFFSET 4.0431 0.0000 0.0000
										}
									}
								}
							}
						}
					}
				}
				JOINT RightCollar
				{
					OFFSET	-6.1402	10.1870	-3.7932
					CHANNELS 3 Yrotation Xrotation Zrotation
					JOINT RightShoulder
					{
						OFFSET	-12.3231	-1.1130	-1.7935
						CHANNELS 3 Yrotation Xrotation Zrotation
						JOINT RightElbow
						{
							OFFSET	-27.6870	0.0000	0.0000
							CHANNELS 3 Yrotation Xrotation Zrotation
							JOINT RightHand
							{
								OFFSET	-27.8738	0.0000	0.0000
								CHANNELS 3 Yrotation Xrotation Zrotation
								JOINT RightFinger0
								{
									OFFSET	-3.1758	-1.0029	3.9820
									CHANNELS 3 Yrotation Xrotation Zrotation
									JOINT RightFinger01
									{
										OFFSET	-4.2938	-1.0019	2.1232
										CHANNELS 3 Yrotation Xrotation Zrotation
										End Site
										{
											OFFSET -3.7424 -2.0137 1.7029
										}
									}
								}
								JOINT RightFinger1
								{
									OFFSET	-11.5739	0.0000	0.0000
									CHANNELS 3 Yrotation Xrotation Zrotation
									JOINT RightFinger11
									{
										OFFSET	-4.0578	0.0000	0.0000
										CHANNELS 3 Yrotation Xrotation Zrotation
										End Site
										{
											OFFSET -4.0431 0.0000 0.0000
										}
									}
								}
							}
						}
					}
				}
			}
		}
	}
	JOINT LeftHip
	{
		OFFSET	9.6338	-3.2733	0.0000
		CHANNELS 3 Yrotation Xrotation Zrotation
		JOINT LeftKnee
		{
			OFFSET	0.0000	-46.7251	-1.7300
			CHANNELS 3 Yrotation Xrotation Zrotation
			JOINT LeftAnkle
			{
				OFFSET	0.0126	-34.1943	-0.8477
				CHANNELS 3 Yrotation Xrotation Zrotation
				JOINT LeftToe
				{
					OFFSET	-0.1833	-12.0640	8.2823
					CHANNELS 3 Yrotation Xrotation Zrotation
					End Site
					{
						OFFSET 0.0000 0.1809 10.3623
					}
				}
			}
		}
	}
	JOINT RightHip
	{
		OFFSET	-9.6338	-3.2733	0.0000
		CHANNELS 3 Yrotation Xrotation Zrotation
		JOINT RightKnee
		{
			OFFSET	0.0000	-46.7251	-1.7300
			CHANNELS 3 Yrotation Xrotation Zrotation
			JOINT RightAnkle
			{
				OFFSET	0.0126	-34.1943	-0.8477
				CHANNELS 3 Yrotation Xrotation Zrotation
				JOINT RightToe
				{
					OFFSET	-0.1833	-12.0640	8.2823
					CHANNELS 3 Yrotation Xrotation Zrotation
					End Site
					{
						OFFSET 0.0032 0.1809 10.3623
					}
				}
			}
		}
	}
}
MOTION
Frames: 13
Frame Time: 0.0333333
-0.0424 91.9526 -0.4537 -54.1411 1.4725 -6.3919 6.6018 2.6152 2.6400 7.7915 2.6534 -0.1262 7.7870 2.7367 -0.3156 6.9892 11.7491 -2.9253 20.0097 -0.7682 8.2305 5.0709 3.8891 -12.5848 -48.4986 -43.4690 -13.2181 -82.4440 0.0000 0.0000 48.0747 46.9310 90.7052 0.0000 -0.0000 0.0000 0.0000 -0.0000 0.0000 0.0000 -0.0000 0.0000 0.0000 -0.0000 0.0000 2.4062 -14.6325 -4.7352 108.1900 -46.9382 12.7161 30.0044 0.0000 0.0000 -48.8590 14.2180 -111.2850 0.0000 -0.0000 0.0000 0.0000 -0.0000 0.0000 0.0000 -0.0000 0.0000 0.0000 -0.0000 0.0000 10.7985 -30.2687 17.0398 10.7199 29.0580 5.8224 6.3238 0.9504 -9.7814 0.0000 -0.0000 0.0000 -13.8504 -12.5963 -6.6197 9.3083 21.6753 2.6304 -11.0804 -8.4538 14.1266 0.0000 0.0000 -0.0000 
-0.0591 91.9928 -0.4345 -54.1081 1.4785 -6.3619 6.6318 2.5851 2.6249 7.8178 2.6387 -0.1180 7.8120 2.7221 -0.3046 6.9860 11.7803 -2.9175 20.0145 -0.7222 8.2337 5.0541 3.8740 -12.5307 -48.4125 -43.4194 -13.2991 -82.3738 0.0000 0.0000 48.2878 46.4918 90.9835 0.0000 -0.0000 0.0000 0.0000 -0.0000 0.0000 0.0000 -0.0000 0.0000 0.0000 -0.0000 0.0000 2.3754 -14.6500 -4.8239 108.4509 -46.8542 12.5141 29.7139 0.0000 -0.0000 -48.8506 13.8426 -111.3989 0.0000 -0.0000 0.0000 0.0000 -0.0000 0.0000 0.0000 -0.0000 0.0000 0.0000 -0.0000 0.0000 10.8233 -30.1559 16.9820 10.7255 28.8396 5.7833 6.3010 1.0497 -9.7433 0.0000 -0.0000 0.0000 -13.8780 -12.4594 -6.6561 9.2784 21.3866 2.5847 -11.0761 -8.3188 14.1526 0.0000 0.0000 -0.0000 
-0.0770 92.0328 -0.4105 -54.0750 1.4702 -6.3232 6.6620 2.5633 2.6103 7.8439 2.6328 -0.1112 7.8370 2.7164 -0.2949 6.9791 11.8204 -2.9084 20.0001 -0.7123 8.2174 5.0402 3.8438 -12.4294 -48.2941 -43.3436 -13.3594 -82.3357 0.0000 0.0000 48.5367 45.9561 91.3895 0.0000 -0.0000 0.0000 0.0000 -0.0000 0.0000 0.0000 -0.0000 0.0000 0.0000 -0.0000 0.0000 2.3616 -14.6564 -4.8685 108.7234 -46.7838 12.2980 29.4004 -0.0000 -0.0000 -48.7942 13.3449 -111.5350 0.0000 -0.0000 0.0000 0.0000 -0.0000 0.0000 0.0000 -0.0000 0.0000 0.0000 -0.0000 0.0000 10.8309 -30.0175 16.9214 10.7576 28.6208 5.7594 6.2791 1.1452 -9.7127 0.0000 -0.0000 0.0000 -13.9038 -12.3205 -6.6987 9.2511 21.1177 2.5273 -11.0831 -8.1688 14.1667 -0.0000 -0.0000 -0.0000 
-0.0963 92.0724 -0.3828 -54.0226 1.4480 -6.2847 6.6850 2.5498 2.6029 7.8639 2.6336 -0.1013 7.8557 2.7179 -0.2821 6.9685 11.8620 -2.9073 19.9441 -0.7186 8.2196 5.0021 3.8115 -12.3130 -48.1908 -43.2482 -13.3546 -82.2828 0.0001 0.0000 48.7977 45.4005 91.7727 0.0000 -0.0000 0.0000 0.0000 -0.0000 0.0000 0.0000 -0.0000 0.0000 0.0000 -0.0000 0.0000 2.3377 -14.6656 -4.9104 108.9951 -46.7636 12.0927 29.0762 -0.0000 -0.0000 -48.7114 12.7805 -111.7450 0.0000 -0.0000 0.0000 0.0000 -0.0000 0.0000 0.0000 -0.0000 0.0000 0.0000 -0.0000 0.0000 10.8341 -29.8721 16.8582 10.7811 28.4213 5.7364 6.2592 1.2077 -9.6815 -0.0000 -0.0000 0.0000 -13.9379 -12.1645 -6.7463 9.2246 20.8533 2.4701 -11.1014 -8.0060 14.1704 0.0000 0.0000 -0.0000 
-0.1159 92.1138 -0.3503 -53.9530 1.4284 -6.2516 6.6968 2.5345 2.6032 7.8733 2.6311 -0.0881 7.8633 2.7168 -0.2663 6.9660 11.8993 -2.9171 19.9034 -0.6908 8.2483 4.9396 3.7971 -12.2443 -48.1613 -43.1231 -13.2549 -82.1689 0.0001 0.0000 49.1180 44.8581 92.0064 0.0000 -0.0000 0.0000 0.0000 -0.0000 0.0000 0.0000 -0.0000 0.0000 0.0000 -0.0000 0.0000 2.2839 -14.6962 -5.0285 109.2769 -46.7570 11.8879 28.7702 -0.0000 0.0000 -48.6474 12.2422 -112.0628 0.0000 -0.0000 0.0000 0.0000 -0.0000 0.0000 0.0000 -0.0000 0.0000 0.0000 -0.0000 0.0000 10.8487 -29.7347 16.7897 10.7683 28.2171 5.6938 6.2366 1.2774 -9.6382 0.0000 0.0000 0.0000 -13.9784 -11.9880 -6.7963 9.1945 20.5563 2.4133 -11.1077 -7.8357 14.1924 0.0000 -0.0000 -0.0000 
-0.1347 92.1539 -0.3140 -53.8808 1.4200 -6.2238 6.6958 2.5122 2.6055 7.8706 2.6210 -0.0772 7.8583 2.7087 -0.2532 6.9685 11.9404 -2.9241 19.8953 -0.6382 8.2419 4.8749 3.7905 -12.1998 -48.1686 -42.9949 -13.1443 -82.0297 -0.0000 -0.0000 49.4607 44.3524 92.1611 0.0000 -0.0000 0.0000 0.0000 -0.0000 0.0000 0.0000 -0.0000 0.0000 0.0000 -0.0000 0.0000 2.2206 -14.7378 -5.1950 109.5464 -46.6831 11.6702 28.5173 0.0000 -0.0000 -48.6678 11.7874 -112.3969 0.0000 -0.0000 0.0000 0.0000 -0.0000 0.0000 0.0000 -0.0000 0.0000 0.0000 -0.0000 0.0000 10.8700 -29.6171 16.7219 10.7359 28.0234 5.6400 6.2135 1.3479 -9.5895 -0.0000 -0.0000 -0.0000 -14.0147 -11.8181 -6.8418 9.1640 20.2550 2.3568 -11.1156 -7.6605 14.2183 -0.0000 -0.0000 -0.0000 
-0.1558 92.1898 -0.2757 -53.8187 1.4152 -6.1925 6.6843 2.4858 2.5924 7.8615 2.6069 -0.0729 7.8480 2.6956 -0.2471 6.9688 11.9832 -2.9140 19.9064 -0.5791 8.2054 4.8320 3.7433 -12.0325 -48.0534 -42.9302 -13.2550 -81.9488 -0.0001 -0.0000 49.7055 43.9001 92.3951 0.0000 -0.0000 0.0000 0.0000 -0.0000 0.0000 0.0000 -0.0000 0.0000 0.0000 -0.0000 0.0000 2.1709 -14.7590 -5.2723 109.7292 -46.5297 11.4922 28.3489 0.0000 0.0000 -48.7544 11.4324 -112.6207 0.0000 -0.0000 0.0000 0.0000 -0.0000 0.0000 0.0000 -0.0000 0.0000 0.0000 -0.0000 0.0000 10.8812 -29.5051 16.6589 10.7288 27.8538 5.5989 6.1945 1.4036 -9.5496 -0.0000 -0.0000 0.0000 -14.0493 -11.6687 -6.8885 9.1372 19.9841 2.3031 -11.1341 -7.4913 14.2348 0.0000 -0.0000 0.0000 
-0.1806 92.2291 -0.2346 -53.7772 1.4098 -6.1514 6.6773 2.4575 2.5585 7.8599 2.5915 -0.0736 7.8461 2.6799 -0.2455 6.9670 12.0191 -2.9024 19.9109 -0.5081 8.2092 4.8183 3.6594 -11.7582 -47.8422 -42.9072 -13.5595 -81.9162 -0.0001 -0.0000 49.8428 43.4816 92.7054 0.0000 -0.0000 0.0000 0.0000 -0.0000 0.0000 0.0000 -0.0000 0.0000 0.0000 -0.0000 0.0000 2.1233 -14.7596 -5.2477 109.7898 -46.3646 11.4140 28.2780 0.0000 -0.0000 -48.8372 11.1470 -112.7669 0.0000 -0.0000 0.0000 0.0000 -0.0000 0.0000 0.0000 -0.0000 0.0000 0.0000 -0.0000 0.0000 10.8737 -29.3656 16.5948 10.7694 27.6607 5.5790 6.1756 1.4672 -9.5215 0.0000 -0.0000 0.0000 -14.0812 -11.5121 -6.9405 9.1089 19.6867 2.2353 -11.1383 -7.3140 14.2574 0.0000 -0.0000 0.0000 
-0.2026 92.2742 -0.1906 -53.7667 1.4092 -6.1164 6.6878 2.4277 2.5350 7.8707 2.5748 -0.0706 7.8562 2.6630 -0.2401 6.9688 12.0536 -2.9110 19.9249 -0.4359 8.2093 4.8159 3.5980 -11.5603 -47.7008 -42.8427 -13.7733 -81.8784 -0.0000 -0.0000 49.9733 43.1083 92.9672 0.0000 -0.0000 0.0000 0.0000 -0.0000 0.0000 0.0000 -0.0000 0.0000 0.0000 -0.0000 0.0000 2.0680 -14.7682 -5.2569 109.8242 -46.2320 11.3802 28.2363 -0.0000 -0.0000 -48.9303 10.8747 -112.9291 0.0000 -0.0000 0.0000 0.0000 -0.0000 0.0000 0.0000 -0.0000 0.0000 0.0000 -0.0000 0.0000 10.8577 -29.2147 16.5378 10.8411 27.4436 5.5757 6.1515 1.5438 -9.4909 -0.0000 -0.0000 0.0000 -14.0995 -11.3390 -6.9804 9.0772 19.3233 2.1446 -11.1207 -7.1001 14.2844 -0.0000 -0.0000 -0.0000 
-0.2165 92.3177 -0.1501 -53.7853 1.4106 -6.0897 6.7032 2.4040 2.5250 7.8826 2.5628 -0.0621 7.8670 2.6515 -0.2294 6.9738 12.0906 -2.9277 19.9745 -0.3790 8.1304 4.8182 3.5646 -11.4542 -47.6185 -42.7380 -13.8490 -81.8529 -0.0000 -0.0000 50.1442 42.8002 93.1710 0.0000 -0.0000 0.0000 0.0000 -0.0000 0.0000 0.0000 -0.0000 0.0000 0.0000 -0.0000 0.0000 2.0318 -14.7835 -5.3191 109.9003 -46.1286 11.3210 28.1683 0.0000 -0.0000 -49.0287 10.6121 -113.0860 0.0000 -0.0000 0.0000 0.0000 -0.0000 0.0000 0.0000 -0.0000 0.0000 0.0000 -0.0000 0.0000 10.8622 -29.0871 16.4865 10.9170 27.2564 5.5759 6.1260 1.6047 -9.4253 0.0000 -0.0000 0.0000 -14.1097 -11.1799 -7.0102 9.0465 18.9547 2.0562 -11.0909 -6.8719 14.2937 0.0000 -0.0000 0.0000 
-0.2237 92.3580 -0.1169 -53.8185 1.4106 -6.0584 6.7107 2.3896 2.5047 7.8892 2.5575 -0.0549 7.8727 2.6468 -0.2202 6.9760 12.1247 -2.9379 20.0163 -0.3430 8.0347 4.8321 3.5325 -11.3568 -47.5298 -42.6431 -13.9141 -81.8585 -0.0000 -0.0000 50.3101 42.5283 93.3850 0.0000 -0.0000 0.0000 0.0000 -0.0000 0.0000 0.0000 -0.0000 0.0000 0.0000 -0.0000 0.0000 2.0252 -14.7888 -5.3570 109.9525 -46.0614 11.2759 28.1200 -0.0000 -0.0000 -49.0610 10.3944 -113.1943 0.0000 -0.0000 0.0000 0.0000 -0.0000 0.0000 0.0000 -0.0000 0.0000 0.0000 -0.0000 0.0000 10.8815 -28.9605 16.4416 11.0003 27.0689 5.5686 6.1019 1.6757 -9.3996 0.0000 -0.0000 -0.0000 -14.1248 -11.0382 -7.0465 9.0178 18.6030 1.9806 -11.0368 -6.6705 14.3073 0.0000 -0.0000 0.0000 
-0.2272 92.3996 -0.0928 -53.8532 1.4208 -6.0162 6.7145 2.3774 2.4630 7.8946 2.5533 -0.0558 7.8771 2.6430 -0.2189 6.9761 12.1540 -2.9418 20.0259 -0.3312 7.9986 4.8510 3.5046 -11.2747 -47.4683 -42.5862 -13.9904 -81.8656 -0.0000 0.0000 50.4130 42.2754 93.5971 0.0000 -0.0000 0.0000 0.0000 -0.0000 0.0000 0.0000 -0.0000 0.0000 0.0000 -0.0000 0.0000 2.0162 -14.7890 -5.3588 109.9530 -46.0084 11.2708 28.1279 -0.0000 -0.0000 -49.0467 10.2292 -113.2788 0.0000 -0.0000 0.0000 0.0000 -0.0000 0.0000 0.0000 -0.0000 0.0000 0.0000 -0.0000 0.0000 10.8756 -28.8263 16.3896 11.0447 26.8608 5.5412 6.1514 1.7487 -9.3799 -0.0000 0.0000 0.0000 -14.1307 -10.9031 -7.0848 8.9888 18.2377 1.8945 -10.9785 -6.4891 14.3568 0.0000 0.0000 0.0000 
-0.2266 92.4378 -0.0750 -53.8750 1.4444 -5.9862 6.7169 2.3640 2.4304 7.8966 2.5475 -0.0558 7.8783 2.6379 -0.2170 6.9796 12.1791 -2.9463 20.0333 -0.3392 7.9953 4.8624 3.4952 -11.2490 -47.4577 -42.5620 -14.0464 -81.8581 -0.0000 -0.0000 50.4737 42.0720 93.7690 0.0000 -0.0000 0.0000 0.0000 -0.0000 0.0000 0.0000 -0.0000 0.0000 0.0000 -0.0000 0.0000 1.9859 -14.7964 -5.3669 109.9705 -45.9155 11.2497 28.1421 -0.0000 -0.0000 -49.0694 10.1313 -113.3207 0.0000 -0.0000 0.0000 0.0000 -0.0000 0.0000 0.0000 -0.0000 0.0000 0.0000 -0.0000 0.0000 10.8459 -28.7275 16.3472 11.0262 26.6801 5.5026 6.2511 1.8305 -9.3717 0.0000 0.0000 -0.0000 -14.1189 -10.7801 -7.1021 8.9615 17.8850 1.8011 -10.9596 -6.3093 14.4185 -0.0000 -0.0000 0.0000 
